<svg width="45" height="45" viewBox="0 0 45 45" fill="none" xmlns="http://www.w3.org/2000/svg">
<g clip-path="url(#clip0)">
<path d="M22.5 11.0889C16.2079 11.0889 11.0889 16.2078 11.0889 22.5C11.0889 28.7921 16.2079 33.9111 22.5 33.9111C28.7922 33.9111 33.9112 28.7921 33.9112 22.5C33.9112 16.2079 28.7922 11.0889 22.5 11.0889Z" fill="#FFAF3E"/>
<path d="M39.5004 22.5L43.6791 16.8843C43.9648 16.5006 44.0466 16.0021 43.8988 15.5471C43.7509 15.0921 43.3917 14.737 42.935 14.5943L36.2536 12.5073L36.3334 5.508C36.3389 5.02959 36.1121 4.57823 35.7251 4.297C35.338 4.01578 34.8386 3.93952 34.3854 4.09263L27.7534 6.33151L23.704 0.622081C23.4272 0.231829 22.9785 0 22.5001 0C22.0216 0 21.5729 0.231829 21.2961 0.622081L17.2466 6.33161L10.6145 4.09273C10.1612 3.93971 9.66179 4.01588 9.27479 4.2971C8.88778 4.57833 8.66097 5.02968 8.66648 5.5081L8.74638 12.5074L2.06497 14.5944C1.60829 14.7371 1.24914 15.0922 1.10134 15.5472C0.953447 16.0022 1.03532 16.5006 1.32097 16.8844L5.49969 22.5001L1.32097 28.1158C1.03532 28.4995 0.953545 28.998 1.10134 29.453C1.24914 29.908 1.60839 30.2631 2.06497 30.4058L8.74638 32.4927L8.66648 39.492C8.66097 39.9704 8.88778 40.4218 9.27479 40.703C9.66189 40.9841 10.1611 41.0604 10.6145 40.9074L17.2466 38.6685L21.2961 44.378C21.5729 44.7683 22.0216 45.0001 22.5001 45.0001C22.9785 45.0001 23.4272 44.7683 23.704 44.378L27.7535 38.6685L34.3855 40.9074C34.8387 41.0604 35.3381 40.9842 35.7252 40.703C36.1122 40.4218 36.339 39.9704 36.3335 39.4921L36.2537 32.4927L42.9351 30.4058C43.3918 30.2631 43.751 29.908 43.8989 29.453C44.0467 28.998 43.9649 28.4996 43.6792 28.1158L39.5004 22.5ZM22.5001 36.8631C14.5802 36.8631 8.1369 30.4198 8.1369 22.4999C8.1369 14.58 14.5802 8.13684 22.5001 8.13684C30.4199 8.13684 36.8632 14.58 36.8632 22.4999C36.8632 30.4198 30.4199 36.8631 22.5001 36.8631Z" fill="#FFAF3E"/>
<path d="M20.504 22.304C19.672 22.304 18.9733 22.0267 18.408 21.472C17.8427 20.9067 17.56 20.224 17.56 19.424C17.56 18.624 17.8427 17.9467 18.408 17.392C18.9733 16.8373 19.672 16.56 20.504 16.56C21.336 16.56 22.0293 16.8373 22.584 17.392C23.1387 17.9467 23.416 18.624 23.416 19.424C23.416 20.2347 23.1333 20.9173 22.568 21.472C22.0133 22.0267 21.3253 22.304 20.504 22.304ZM19.224 26.24L26.584 18.24L27.704 18.88L20.328 26.864L19.224 26.24ZM20.488 20.272C20.7333 20.272 20.9307 20.192 21.08 20.032C21.24 19.8613 21.32 19.6587 21.32 19.424C21.32 19.1893 21.24 18.992 21.08 18.832C20.9307 18.672 20.7333 18.592 20.488 18.592C20.2533 18.592 20.056 18.672 19.896 18.832C19.7467 18.992 19.672 19.1893 19.672 19.424C19.672 19.6693 19.7467 19.872 19.896 20.032C20.056 20.192 20.2533 20.272 20.488 20.272ZM26.696 28.224C25.8533 28.224 25.1493 27.9467 24.584 27.392C24.0293 26.8373 23.752 26.16 23.752 25.36C23.752 24.5493 24.0293 23.8667 24.584 23.312C25.1493 22.7573 25.8533 22.48 26.696 22.48C27.528 22.48 28.2213 22.7627 28.776 23.328C29.3307 23.8827 29.608 24.56 29.608 25.36C29.608 26.16 29.3253 26.8373 28.76 27.392C28.2053 27.9467 27.5173 28.224 26.696 28.224ZM26.088 25.952C26.248 26.112 26.4453 26.192 26.68 26.192C26.9147 26.192 27.1067 26.112 27.256 25.952C27.416 25.7813 27.496 25.584 27.496 25.36C27.496 25.1147 27.416 24.912 27.256 24.752C27.1067 24.592 26.9147 24.512 26.68 24.512C26.4453 24.512 26.248 24.592 26.088 24.752C25.9387 24.912 25.864 25.1147 25.864 25.36C25.864 25.5947 25.9387 25.792 26.088 25.952Z" fill="white"/>
</g>
<defs>
<clipPath id="clip0">
<rect width="45" height="45" fill="white"/>
</clipPath>
</defs>
</svg>
