<svg width="185" height="177" viewBox="0 0 185 177" fill="none" xmlns="http://www.w3.org/2000/svg">
<path d="M18.442 72.7594C19.7912 65.0898 30.1449 60.5801 33.6667 54.0668C37.2995 47.3242 35.3614 36.3945 40.8854 31.2011C46.4095 26.0076 57.5585 28.2316 64.4892 24.9306C71.4198 21.6296 76.3486 11.7007 84.0821 10.6697C91.5568 9.66232 99.2098 17.8512 107.056 19.2316C114.903 20.612 124.891 15.5266 131.574 19.0245C138.505 22.6352 139.783 33.6976 145.123 39.1159C150.463 44.5341 161.757 46.2583 165.183 53.0678C168.61 59.8773 163.038 69.4443 164.165 77.0243C165.239 84.346 173.432 92.1185 172.083 99.7881C170.733 107.458 160.38 111.967 156.872 118.483C153.225 125.223 155.177 136.155 149.653 141.349C144.129 146.542 132.982 144.305 126.035 147.617C119.089 150.929 114.19 160.849 106.443 161.878C98.956 162.952 91.3148 154.696 83.4681 153.316C75.6215 151.935 65.6333 157.021 58.9511 153.523C52.0338 149.915 50.7441 138.836 45.4015 133.432C40.0589 128.027 28.7697 126.359 25.3411 119.48C21.9126 112.601 27.4867 103.103 26.3731 95.5256C25.2857 88.2014 17.0927 80.429 18.442 72.7594Z" fill="#54BE4A"/>
<path d="M12.6513 76.8175C14.0005 69.1479 24.3542 64.6382 27.876 58.1249C31.5088 51.3823 29.5707 40.4526 35.0948 35.2592C40.6188 30.0657 51.7678 32.2897 58.6985 28.9887C65.6292 25.6877 70.558 15.7588 78.2914 14.7278C85.7661 13.7204 93.4191 21.9093 101.266 23.2897C109.112 24.6701 119.101 19.5847 125.783 23.0826C132.714 26.6933 133.992 37.7557 139.332 43.174C144.673 48.5922 155.966 50.3164 159.393 57.1259C162.819 63.9354 157.247 73.5024 158.374 81.0824C159.448 88.4041 167.641 96.1766 166.292 103.846C164.943 111.516 154.589 116.026 151.081 122.541C147.434 129.281 149.386 140.214 143.862 145.407C138.338 150.6 127.191 148.363 120.245 151.675C113.298 154.987 108.399 164.907 100.652 165.936C93.1653 167.01 85.5241 158.754 77.6775 157.374C69.8308 155.994 59.8426 161.079 53.1604 157.581C46.2431 153.973 44.9534 142.895 39.6108 137.49C34.2682 132.085 22.979 130.417 19.5505 123.538C16.1219 116.659 21.696 107.161 20.5825 99.5837C19.495 92.2596 11.302 84.4871 12.6513 76.8175Z" fill="#8236F5"/>
<path d="M45.5957 99.7043C41.9517 99.0632 39.0671 97.7604 36.942 95.7958C34.8169 93.8313 33.5094 91.4521 33.0194 88.6583L41.3247 85.601C42.0679 88.8794 44.0646 90.8044 47.3147 91.3762C50.0067 91.8498 51.4884 91.3151 51.7598 89.7721C51.9389 88.7544 51.3118 87.7979 49.8785 86.9027C49.2681 86.5246 47.9016 85.8273 45.779 84.8108C42.7891 83.3372 40.5193 81.6179 38.9696 79.653C37.4257 77.6553 36.9137 75.1791 37.4335 72.2245C37.9937 69.0401 39.5796 66.6622 42.1914 65.091C44.8359 63.5255 47.8653 63.0431 51.2796 63.6437C54.1686 64.1519 56.6108 65.2754 58.6064 67.0141C60.602 68.7529 61.9655 71.0065 62.6969 73.7751L54.548 76.8091C53.9151 74.0578 52.3511 72.4628 49.8561 72.0238C48.8056 71.839 47.9637 71.9109 47.3305 72.2395C46.7302 72.5739 46.3723 73.0694 46.2568 73.7259C46.1239 74.481 46.4053 75.1905 47.1008 75.8544C47.8291 76.524 49.298 77.4086 51.5076 78.508C53.0953 79.295 54.3604 79.9914 55.303 80.5972C56.2457 81.203 57.2521 82.0232 58.3224 83.0576C59.3985 84.0592 60.1194 85.2521 60.4851 86.6364C60.8565 87.9879 60.8921 89.5172 60.5918 91.2243C59.9969 94.6057 58.3337 97.0376 55.6022 98.5201C52.8707 100.003 49.5352 100.397 45.5957 99.7043ZM82.8159 105.491L82.2135 100.257L70.7397 98.2386L68.3874 102.952L58.8341 101.272L76.2736 68.8022L87.0087 70.6908L92.3199 107.163L82.8159 105.491ZM74.339 91.0536L81.2824 92.2751L79.8479 79.94L74.339 91.0536ZM105.14 100.635L117.007 102.723L115.509 111.242L94.8264 107.604L100.89 73.1329L109.705 74.6835L105.14 100.635ZM128.997 105.086L142.342 107.434L140.887 115.707L118.727 111.808L124.791 77.3375L146.705 81.1925L145.258 89.4163L132.159 87.1119L131.319 91.8885L143.186 93.9763L141.757 102.102L129.889 100.014L128.997 105.086Z" fill="white"/>
</svg>
