<svg display="none" xmlns="http://www.w3.org/2000/svg">
    
    <symbol id="facebook" viewBox="0 0 98.6 98.6">
        <g>
            <path d="M49.3,0C22.1,0,0,22.1,0,49.3s22.1,49.3,49.3,49.3s49.3-22.1,49.3-49.3S76.5,0,49.3,0z M63.8,28.3c-2.3,0-4.7,0-7,0
                c-1.5-0.1-3,1-3.3,2.5c0,2.6,0,5.1,0,7.7c3.4,0,6.9,0,10.3,0c-0.3,3.7-0.7,7.4-1.3,11.1c-3,0-6.1,0-9.1,0c0,11,0,21.9,0,32.8
                c-4.5,0-9,0-13.6,0c-0.1-11,0-21.9,0-32.9c-2.2,0-4.4,0-6.6,0c0-3.7,0-7.4,0-11c2.2,0,4.4,0,6.6,0c0.1-3.6-0.1-7.2,0.1-10.7
                c0.2-2.9,1.3-5.7,3.4-7.7c2.6-2.4,6.2-3.3,9.6-3.4c3.6,0,7.3,0,10.9,0C63.8,20.6,63.8,24.4,63.8,28.3z"/>
        </g>
    </symbol>

    <symbol id="instagram" viewBox="0 0 98.6 98.6">
        <g>
            <path d="M62.2,24.5H36.2c-6.5,0-11.8,5.3-11.8,11.8v26.2c0,6.5,5.3,11.8,11.8,11.8h25.9c6.5,0,11.8-5.3,11.8-11.8V36.2
                C73.9,29.8,68.7,24.5,62.2,24.5z M49.2,65c-8.8,0-16-7.1-16-15.8s7.2-15.8,16-15.8s16,7.1,16,15.8S58,65,49.2,65z M65.5,36.5
                c-2.1,0-3.8-1.7-3.8-3.8s1.7-3.8,3.8-3.8c2.1,0,3.8,1.7,3.8,3.8S67.6,36.5,65.5,36.5z"/>
            <path d="M49.3,0C22.1,0,0,22.1,0,49.3s22.1,49.3,49.3,49.3s49.3-22.1,49.3-49.3S76.5,0,49.3,0z M79.8,62.4
                c0,9.7-7.9,17.6-17.6,17.6H36.2c-9.7,0-17.6-7.9-17.6-17.6V36.2c0-9.7,7.9-17.6,17.6-17.6h25.9c9.7,0,17.6,7.9,17.6,17.6V62.4z"/>
            <path d="M49.2,39.2c-5.6,0-10.1,4.5-10.1,10s4.6,10,10.1,10s10.1-4.5,10.1-10S54.8,39.2,49.2,39.2z"/>
        </g>
    </symbol>

    <symbol id="odnoklassniki" viewBox="0 0 98.6 98.6">
       <g>
	        <circle cx="49.9" cy="30.9" r="8.3"/>
	        <path d="M49.3,0C22.1,0,0,22.1,0,49.3s22.1,49.3,49.3,49.3s49.3-22.1,49.3-49.3S76.5,0,49.3,0z M49.9,14c9.3,0,16.9,7.6,16.9,16.9
                s-7.6,16.9-16.9,16.9s-16.9-7.6-16.9-16.9S40.5,14,49.9,14z M64.9,57.6c-3.6,2.3-8.5,3.2-11.8,3.5l2.7,2.7l10,10
                c1.5,1.5,1.5,4,0,5.5l-0.5,0.5c-1.5,1.5-4,1.5-5.5,0c-2.5-2.5-6.2-6.2-10-10l-10,10c-1.5,1.5-4,1.5-5.5,0L34,79.3
                c-1.5-1.5-1.5-4,0-5.5c2.5-2.5,6.2-6.2,10-10l2.7-2.7c-3.2-0.3-8.2-1.2-11.8-3.5c-4.2-2.7-6.1-4.3-4.5-7.7c1-1.9,3.6-3.5,7.1-0.7
                c4.8,3.7,12.4,3.7,12.4,3.7s7.6,0,12.4-3.7c3.5-2.8,6.2-1.2,7.1,0.7C71,53.2,69.2,54.9,64.9,57.6z"/>
        </g>
    </symbol>

    <symbol id="vk" viewBox="0 0 98.6 98.6">
       <g>
	        <path d="M49.3,0C22.1,0,0,22.1,0,49.3s22.1,49.3,49.3,49.3s49.3-22.1,49.3-49.3S76.5,0,49.3,0z M70.7,55.8c0.4,0.5,1.3,1.4,2.8,2.8
            h0l0,0l0,0l0.1,0.1c3.2,3,5.4,5.5,6.5,7.6c0.1,0.1,0.1,0.3,0.2,0.4c0.1,0.2,0.2,0.5,0.2,0.9c0.1,0.4,0.1,0.8,0,1.2
            c-0.1,0.3-0.4,0.7-0.9,0.9c-0.5,0.3-1.2,0.4-2,0.4L69,70.3c-0.5,0.1-1.2,0.1-1.9-0.2c-0.7-0.2-1.3-0.5-1.8-0.8L64.6,69
            c-0.7-0.5-1.5-1.2-2.4-2.2c-0.9-1-1.7-1.9-2.3-2.7s-1.3-1.4-2.1-2c-0.7-0.5-1.4-0.7-1.9-0.5c-0.1,0-0.2,0.1-0.3,0.1
            c-0.1,0.1-0.3,0.2-0.6,0.5c-0.3,0.3-0.5,0.6-0.7,1c-0.2,0.4-0.4,1-0.6,1.8c-0.2,0.8-0.2,1.7-0.2,2.7c0,0.3,0,0.7-0.1,0.9
            c-0.1,0.3-0.2,0.5-0.3,0.6l-0.1,0.2c-0.4,0.4-1,0.7-1.8,0.8h-3.9c-1.6,0.1-3.3-0.1-5-0.6c-1.7-0.5-3.2-1.1-4.5-1.8
            c-1.3-0.7-2.5-1.5-3.5-2.3c-1.1-0.8-1.9-1.4-2.4-2l-0.9-0.8c-0.2-0.2-0.5-0.6-0.9-1c-0.4-0.5-1.2-1.5-2.4-3.1
            c-1.2-1.6-2.4-3.3-3.6-5.2c-1.2-1.8-2.6-4.2-4.2-7.2c-1.6-3-3.1-6.1-4.5-9.3C15.1,36.6,15,36.3,15,36c0-0.2,0-0.4,0.1-0.5l0.1-0.2
            c0.3-0.4,1-0.7,1.9-0.7l9.4-0.1c0.3,0,0.5,0.1,0.8,0.2c0.3,0.1,0.4,0.2,0.5,0.3l0.2,0.1c0.4,0.3,0.6,0.6,0.8,1.1
            c0.5,1.1,1,2.3,1.6,3.5c0.6,1.2,1.1,2.2,1.4,2.8l0.5,1c0.7,1.4,1.3,2.6,1.9,3.6c0.6,1,1.2,1.8,1.7,2.3c0.5,0.6,1,1,1.4,1.3
            c0.5,0.3,0.8,0.5,1.2,0.5c0.3,0,0.6-0.1,0.9-0.2c0,0,0.1-0.1,0.2-0.2s0.2-0.3,0.4-0.8c0.2-0.4,0.4-0.9,0.5-1.6
            c0.1-0.7,0.2-1.6,0.3-2.8c0.1-1.2,0.1-2.6,0-4.3c0-0.9-0.1-1.7-0.3-2.5c-0.2-0.8-0.3-1.3-0.5-1.6L39.9,37c-0.6-0.8-1.5-1.3-2.9-1.5
            c-0.3,0-0.2-0.3,0.2-0.8c0.4-0.4,0.8-0.8,1.3-1c1.2-0.6,3.9-0.9,8.2-0.8c1.9,0,3.4,0.2,4.6,0.4c0.5,0.1,0.8,0.3,1.1,0.5
            c0.3,0.2,0.5,0.5,0.7,0.8c0.2,0.4,0.3,0.7,0.4,1.1c0.1,0.4,0.1,0.9,0.1,1.6c0,0.7,0,1.3,0,1.9c0,0.6-0.1,1.4-0.1,2.4
            c0,1-0.1,2-0.1,2.8c0,0.3,0,0.7,0,1.4c0,0.7,0,1.3,0,1.6c0,0.4,0.1,0.9,0.1,1.4c0.1,0.5,0.2,1,0.4,1.3c0.2,0.4,0.5,0.6,0.8,0.8
            c0.2,0,0.4,0.1,0.6,0.1c0.2,0,0.5-0.1,0.9-0.4c0.4-0.3,0.8-0.7,1.3-1.2c0.5-0.5,1.1-1.3,1.8-2.3c0.7-1,1.5-2.3,2.3-3.7
            c1.4-2.4,2.6-4.9,3.7-7.7c0.1-0.2,0.2-0.4,0.3-0.6c0.1-0.2,0.3-0.3,0.4-0.4l0.1-0.1c0,0,0.1-0.1,0.2-0.1c0.1,0,0.2-0.1,0.4-0.1
            c0.2,0,0.5,0,0.7,0l9.9-0.1c0.9-0.1,1.6-0.1,2.2,0.1c0.6,0.2,0.9,0.4,1.1,0.6l0.2,0.3c0.5,1.5-1.2,4.8-5.1,10.1
            c-0.5,0.7-1.3,1.7-2.2,2.9c-1.8,2.3-2.8,3.8-3.1,4.5C69.8,54,70,54.9,70.7,55.8z"/>
        </g>
    </symbol>

    <symbol id="youtube" viewBox="0 0 98.6 98.6">
        <g>
            <polygon points="43.7,56.5 59,48.4 43.7,40.5 	"/>
                <path d="M49.3,0C22.1,0,0,22.1,0,49.3s22.1,49.3,49.3,49.3s49.3-22.1,49.3-49.3S76.5,0,49.3,0z M76.8,60.8
                    c-0.7,4.2-2.7,6.4-6.9,6.9c-4.7,0.5-15.4,0.8-20.1,0.8c-4.9,0-14.8-0.2-19.7-0.6c-4.2-0.4-7.1-2.7-7.7-6.9
                    c-0.4-3.1-0.7-6.7-0.7-12.5c0-6.5,0.2-9.2,0.8-12.1c0.8-4.2,2.8-6.2,7.3-6.6c4.8-0.5,9.3-0.7,19.3-0.7c4.9,0,15.5,0.3,20.4,0.7
                    c4.3,0.4,6.7,3,7.2,7.2c0.4,2.9,0.7,7.1,0.7,11.6C77.5,56.2,76.8,60.8,76.8,60.8z"/>
        </g>
    </symbol>

    <symbol id="call" viewBox="0 0 30 30">
       <g>
	        <path d="M23.7094 18.5839C23.0952 17.9444 22.3544 17.6025 21.5692 17.6025C20.7904 17.6025 20.0433 17.9381 19.4038 18.5776L17.403 20.5721C17.2384 20.4834 17.0737 20.4011 16.9154 20.3188C16.6875 20.2048 16.4722 20.0972 16.2886 19.9832C14.4144 18.7929 12.7112 17.2416 11.0776 15.2345C10.2861 14.234 9.75429 13.3919 9.36805 12.5371C9.88725 12.0623 10.3685 11.5684 10.837 11.0935C11.0143 10.9162 11.1916 10.7326 11.3689 10.5553C12.6985 9.22567 12.6985 7.50344 11.3689 6.17379L9.64032 4.44523C9.44403 4.24895 9.24142 4.04633 9.05147 3.84372C8.67156 3.45115 8.27267 3.04592 7.86111 2.66602C7.24693 2.05818 6.51245 1.73526 5.73998 1.73526C4.96752 1.73526 4.22038 2.05818 3.58721 2.66602C3.58087 2.67235 3.58087 2.67235 3.57454 2.67868L1.42176 4.85046C0.611304 5.66092 0.14909 6.64866 0.0477825 7.7947C-0.104178 9.64356 0.440348 11.3658 0.858241 12.4928C1.88398 15.2598 3.41625 17.8241 5.70199 20.5721C8.47528 23.8836 11.8121 26.4986 15.6238 28.3411C17.0801 29.0312 19.0239 29.848 21.1957 29.9873C21.3286 29.9937 21.4679 30 21.5946 30C23.0572 30 24.2855 29.4745 25.248 28.4297C25.2543 28.4171 25.267 28.4107 25.2733 28.3981C25.6025 27.9992 25.9824 27.6383 26.3813 27.252C26.6536 26.9924 26.9322 26.7202 27.2045 26.4352C27.8313 25.7831 28.1606 25.0233 28.1606 24.2445C28.1606 23.4593 27.825 22.7059 27.1855 22.0727L23.7094 18.5839ZM25.9761 25.2512C25.9698 25.2512 25.9698 25.2575 25.9761 25.2512C25.7292 25.5171 25.4759 25.7577 25.2036 26.0237C24.7921 26.4162 24.3742 26.8278 23.9816 27.29C23.3421 27.9738 22.5887 28.2968 21.6009 28.2968C21.5059 28.2968 21.4046 28.2968 21.3096 28.2904C19.4291 28.1701 17.6816 27.4357 16.3709 26.8088C12.7872 25.0739 9.64032 22.6109 7.02532 19.4894C4.86621 16.887 3.42258 14.481 2.46649 11.8976C1.87765 10.3211 1.66237 9.0927 1.75734 7.934C1.82066 7.19319 2.10559 6.57901 2.63112 6.05348L4.79023 3.89437C5.10048 3.60311 5.42973 3.44482 5.75265 3.44482C6.15155 3.44482 6.47446 3.68543 6.67708 3.88804C6.68341 3.89437 6.68974 3.9007 6.69607 3.90704C7.08231 4.26794 7.44954 4.64151 7.83578 5.04041C8.03206 5.24303 8.23468 5.44564 8.43729 5.65459L10.1658 7.38314C10.837 8.0543 10.837 8.67481 10.1658 9.34597C9.98223 9.52959 9.80494 9.71321 9.62132 9.8905C9.08946 10.435 8.58292 10.9416 8.03206 11.4354C8.0194 11.4481 8.00674 11.4544 8.0004 11.4671C7.45588 12.0116 7.55718 12.5435 7.67115 12.9044C7.67749 12.9234 7.68382 12.9424 7.69015 12.9614C8.1397 14.0504 8.77287 15.0762 9.73529 16.2982L9.74162 16.3045C11.4892 18.4573 13.3317 20.1352 15.3642 21.4205C15.6238 21.5852 15.8897 21.7181 16.143 21.8448C16.3709 21.9587 16.5862 22.0664 16.7698 22.1803C16.7951 22.193 16.8205 22.212 16.8458 22.2247C17.0611 22.3323 17.2637 22.383 17.4726 22.383C17.9982 22.383 18.3274 22.0537 18.4351 21.9461L20.6005 19.7806C20.8158 19.5653 21.1577 19.3057 21.5566 19.3057C21.9491 19.3057 22.2721 19.5527 22.4683 19.768C22.4747 19.7743 22.4747 19.7743 22.481 19.7806L25.9698 23.2694C26.6219 23.9152 26.6219 24.5801 25.9761 25.2512Z" fill="#1A59EE"/>
            <path d="M16.2126 7.1362C17.8715 7.41479 19.3785 8.19992 20.5815 9.40295C21.7845 10.606 22.5633 12.1129 22.8482 13.7718C22.9179 14.1897 23.2788 14.481 23.6904 14.481C23.741 14.481 23.7853 14.4746 23.836 14.4683C24.3045 14.3923 24.6148 13.9491 24.5388 13.4806C24.1969 11.4734 23.2471 9.64355 21.7972 8.19359C20.3472 6.74363 18.5174 5.79388 16.5102 5.45197C16.0417 5.37598 15.6048 5.68624 15.5225 6.14845C15.4402 6.61067 15.7441 7.06022 16.2126 7.1362Z" fill="#1A59EE"/>
            <path d="M29.9649 13.2338C29.4014 9.92867 27.8438 6.9211 25.4504 4.52772C23.057 2.13434 20.0495 0.576736 16.7443 0.0132147C16.2821 -0.0690975 15.8452 0.247488 15.7629 0.709702C15.6869 1.17825 15.9972 1.61514 16.4657 1.69745C19.4163 2.19765 22.1073 3.59696 24.2474 5.73074C26.3875 7.87086 27.7805 10.5618 28.2807 13.5124C28.3503 13.9303 28.7112 14.2216 29.1228 14.2216C29.1735 14.2216 29.2178 14.2152 29.2684 14.2089C29.7306 14.1392 30.0472 13.696 29.9649 13.2338Z" fill="#1A59EE"/>
        </g>
    </symbol>

    <symbol id="arrow" viewBox="0 0 82 24">
        <g>
	     <path d="M81.0607 13.0607C81.6464 12.4749 81.6464 11.5251 81.0607 10.9393L71.5147 1.3934C70.9289 0.807611 69.9792 0.807611 69.3934 1.3934C68.8076 1.97919 68.8076 2.92893 69.3934 3.51472L77.8787 12L69.3934 20.4853C68.8076 21.0711 68.8076 22.0208 69.3934 22.6066C69.9792 23.1924 70.9289 23.1924 71.5147 22.6066L81.0607 13.0607ZM0 13.5H80V10.5H0V13.5Z"/>
        </g>
    </symbol>

    <symbol id="smile" viewBox="0 0 136 129">
        <g>
	     <path d="M9.54828 54.2609C10.5666 48.4723 18.3809 45.0687 21.039 40.1528C23.7808 35.0639 22.318 26.8149 26.4873 22.8952C30.6565 18.9755 39.0711 20.654 44.3019 18.1626C49.5328 15.6712 53.2528 8.17743 59.0895 7.39932C64.731 6.63902 70.507 12.8195 76.4292 13.8614C82.3514 14.9032 89.8899 11.065 94.9332 13.705C100.164 16.4302 101.129 24.7794 105.16 28.8688C109.19 32.9582 117.714 34.2595 120.3 39.3989C122.886 44.5383 118.681 51.7589 119.531 57.4798C120.342 63.0058 126.525 68.872 125.507 74.6606C124.489 80.4491 116.674 83.8528 114.027 88.7705C111.275 93.8576 112.748 102.108 108.578 106.028C104.409 109.948 95.9964 108.259 90.7534 110.759C85.5104 113.259 81.8129 120.746 75.9659 121.522C70.3155 122.333 64.5483 116.102 58.6261 115.06C52.704 114.018 45.1654 117.856 40.1221 115.216C34.9014 112.493 33.928 104.132 29.8957 100.053C25.8635 95.9734 17.343 94.7145 14.7554 89.5226C12.1677 84.3308 16.3747 77.1626 15.5342 71.4435C14.7135 65.9157 8.52994 60.0495 9.54828 54.2609Z"/>
        <g clip-path="url(#clip0)">
        <path d="M79.4051 75.3442C79.2934 75.1784 79.1501 75.0363 78.9835 74.9259C78.8168 74.8155 78.63 74.739 78.4338 74.7008C78.2376 74.6626 78.0357 74.6634 77.8398 74.7033C77.6439 74.7431 77.4578 74.8212 77.2921 74.933C75.3234 76.2484 73.1007 77.1362 70.7676 77.5391C68.4344 77.942 66.0427 77.851 63.7469 77.2721C61.4511 76.6931 59.3023 75.639 57.4392 74.1778C55.5762 72.7167 54.0403 70.881 52.9309 68.7893C52.7425 68.4306 52.4193 68.1615 52.0325 68.0412C51.6456 67.9208 51.2268 67.959 50.8682 68.1475C50.5095 68.3359 50.2404 68.6591 50.12 69.0459C49.9997 69.4327 50.0379 69.8515 50.2263 70.2102C51.5346 72.6808 53.347 74.8492 55.5461 76.5752C57.7453 78.3012 60.2824 79.5463 62.9931 80.2299C65.7038 80.9135 68.5279 81.0205 71.2826 80.5438C74.0373 80.0671 76.6612 79.0175 78.9846 77.4628C79.1519 77.3518 79.2956 77.2088 79.4073 77.042C79.5191 76.8752 79.5968 76.688 79.6359 76.491C79.675 76.2941 79.6747 76.0914 79.6351 75.8946C79.5955 75.6978 79.5173 75.5107 79.4051 75.3442Z" fill="white"/>
        <path d="M75.6527 30.0626C56.9392 25.3432 37.876 36.7278 33.1566 55.4413C28.4372 74.1549 39.8217 93.2181 58.5353 97.9375C77.2488 102.657 96.312 91.2723 101.031 72.5588C105.751 53.8452 94.3663 34.782 75.6527 30.0626ZM59.2795 94.9864C42.1928 90.6772 31.7985 73.2723 36.1077 56.1856C40.4168 39.0988 57.8217 28.7046 74.9085 33.0137C91.9952 37.3228 102.389 54.7278 98.0803 71.8145C93.7712 88.9013 76.3663 99.2955 59.2795 94.9864Z" fill="white"/>
        <path d="M81.5031 56.6482C79.5464 56.1547 77.4739 56.4588 75.7413 57.4934C74.0088 58.5281 72.7583 60.2086 72.2648 62.1653C72.1661 62.5566 72.2269 62.9712 72.4339 63.3177C72.6408 63.6642 72.9769 63.9143 73.3683 64.013C73.7596 64.1116 74.1741 64.0508 74.5206 63.8439C74.8671 63.637 75.1172 63.3009 75.2159 62.9095C75.512 61.7355 76.2623 60.7272 77.3018 60.1064C78.3413 59.4856 79.5849 59.3032 80.7589 59.5993C81.9329 59.8953 82.9412 60.6457 83.562 61.6852C84.1828 62.7247 84.3652 63.9682 84.0691 65.1422C83.9705 65.5336 84.0313 65.9481 84.2382 66.2946C84.4451 66.6411 84.7812 66.8912 85.1726 66.9899C85.5639 67.0886 85.9784 67.0278 86.3249 66.8209C86.6714 66.6139 86.9215 66.2778 87.0202 65.8865C87.5137 63.9298 87.2096 61.8572 86.175 60.1247C85.1403 58.3922 83.4598 57.1416 81.5031 56.6482Z" fill="white"/>
        <path d="M60.4605 59.1884C60.3618 59.5797 60.4227 59.9942 60.6296 60.3407C60.8365 60.6872 61.1726 60.9374 61.564 61.036C61.9553 61.1347 62.3698 61.0739 62.7163 60.867C63.0628 60.6601 63.3129 60.324 63.4116 59.9326C63.9051 57.9759 63.601 55.9034 62.5664 54.1708C61.5317 52.4383 59.8512 51.1878 57.8945 50.6943C55.9378 50.2009 53.8653 50.5049 52.1327 51.5396C50.4002 52.5742 49.1497 54.2548 48.6562 56.2114C48.5575 56.6028 48.6183 57.0173 48.8253 57.3638C49.0322 57.7103 49.3683 57.9604 49.7596 58.0591C50.151 58.1578 50.5655 58.097 50.912 57.8901C51.2585 57.6831 51.5086 57.347 51.6073 56.9557C51.9034 55.7817 52.6537 54.7734 53.6932 54.1526C54.7327 53.5318 55.9763 53.3493 57.1503 53.6454C58.3243 53.9415 59.3326 54.6918 59.9534 55.7313C60.5742 56.7708 60.7566 58.0144 60.4605 59.1884Z" fill="white"/>
        </g>
        <defs>
        <clipPath id="clip0">
        <rect width="70" height="70" fill="white" transform="translate(41.7153 21.5039) rotate(14.1544)"/>
        </clipPath>
        </defs>
        </g>
    </symbol>

    <symbol id="sun" viewBox="0 0 207 207">
        <g>
	     <g clip-path="url(#clip0)">
            <path d="M103.284 62.7501C80.9992 62.7501 62.8689 80.8801 62.8689 103.165C62.8689 125.451 80.9992 143.581 103.284 143.581C125.569 143.581 143.7 125.451 143.7 103.165C143.7 80.8805 125.569 62.7501 103.284 62.7501Z" fill="#FFAF3E"/>
            <path d="M147.701 103.381L158.566 88.7807C159.308 87.7829 159.521 86.4868 159.137 85.3038C158.752 84.1208 157.818 83.1975 156.631 82.8265L139.259 77.4005L139.467 59.2022C139.481 57.9583 138.891 56.7847 137.885 56.0536C136.879 55.3224 135.58 55.1241 134.402 55.5222L117.159 61.3433L106.63 46.4988C105.91 45.4841 104.744 44.8813 103.5 44.8813C102.256 44.8813 101.089 45.4841 100.37 46.4988L89.8409 61.3435L72.5974 55.5224C71.4188 55.1246 70.1204 55.3226 69.1142 56.0538C68.108 56.785 67.5183 57.9585 67.5326 59.2024L67.7403 77.4007L50.3687 82.8268C49.1813 83.1978 48.2475 84.1211 47.8632 85.3041C47.4787 86.4871 47.6916 87.7829 48.4343 88.7809L59.299 103.382L48.4343 117.982C47.6916 118.98 47.479 120.276 47.8632 121.459C48.2475 122.642 49.1816 123.565 50.3687 123.936L67.7403 129.362L67.5326 147.561C67.5183 148.804 68.108 149.978 69.1142 150.709C70.1207 151.44 71.4185 151.638 72.5974 151.241L89.8409 145.419L100.37 160.264C101.089 161.279 102.256 161.882 103.5 161.882C104.744 161.882 105.91 161.279 106.63 160.264L117.159 145.419L134.402 151.241C135.58 151.638 136.879 151.44 137.885 150.709C138.892 149.978 139.481 148.804 139.467 147.561L139.259 129.362L156.631 123.936C157.818 123.565 158.752 122.642 159.137 121.459C159.521 120.276 159.308 118.98 158.566 117.982L147.701 103.381ZM103.5 140.725C82.9082 140.725 66.1557 123.973 66.1557 103.381C66.1557 82.7894 82.9082 66.0371 103.5 66.0371C124.092 66.0371 140.844 82.7894 140.844 103.381C140.844 123.973 124.092 140.725 103.5 140.725Z" fill="#FFAF3E"/>
            </g>
            <g clip-path="url(#clip1)">
            <path d="M94.9138 69.0814C88.2288 70.8784 82.2268 74.6175 77.6668 79.8257C73.1068 85.0339 70.1936 91.4773 69.2957 98.3412C68.3977 105.205 69.5552 112.181 72.6219 118.387C75.6887 124.593 80.5268 129.75 86.5245 133.207C92.5223 136.663 99.4102 138.263 106.317 137.805C113.225 137.346 119.841 134.85 125.329 130.631C130.818 126.413 134.932 120.662 137.152 114.105C139.371 107.548 139.597 100.48 137.8 93.7953C135.39 84.831 129.518 77.1911 121.475 72.5563C113.433 67.9216 103.878 66.6716 94.9138 69.0814V69.0814ZM112.26 133.609C106.183 135.242 99.7575 135.037 93.7968 133.019C87.836 131.001 82.6076 127.261 78.7726 122.272C74.9376 117.282 72.6682 111.267 72.2516 104.988C71.8349 98.709 73.2896 92.4472 76.4317 86.9947C79.5738 81.5422 84.2622 77.1439 89.9039 74.356C95.5457 71.5681 101.888 70.5157 108.127 71.3321C114.367 72.1484 120.225 74.7968 124.96 78.9422C129.694 83.0877 133.094 88.5441 134.727 94.6213C136.918 102.771 135.782 111.457 131.568 118.768C127.355 126.08 120.409 131.418 112.26 133.609Z" fill="white"/>
            <path d="M121.726 101.411C121.319 101.521 120.971 101.788 120.761 102.153C120.55 102.519 120.493 102.953 120.603 103.36C121.698 107.435 121.13 111.778 119.023 115.434C116.916 119.09 113.444 121.759 109.369 122.854C105.294 123.949 100.951 123.381 97.2957 121.275C93.6399 119.168 90.9707 115.695 89.8754 111.621C89.7658 111.213 89.4989 110.866 89.1334 110.655C88.7678 110.444 88.3335 110.388 87.926 110.497C87.5185 110.607 87.1713 110.874 86.9606 111.239C86.7499 111.605 86.6931 112.039 86.8027 112.447C88.1171 117.336 91.3201 121.503 95.707 124.031C100.094 126.559 105.305 127.241 110.195 125.927C115.085 124.612 119.252 121.409 121.78 117.023C124.308 112.636 124.99 107.424 123.675 102.534C123.566 102.127 123.299 101.78 122.933 101.569C122.568 101.358 122.134 101.302 121.726 101.411Z" fill="white"/>
            <path d="M90.4558 104.282C90.8229 104.179 91.1406 103.947 91.3512 103.629L95.8951 96.9385C96.9505 95.3996 97.5009 93.5705 97.4699 91.7047C97.4853 90.931 97.3566 90.1612 97.0903 89.4346C96.5747 87.9514 95.529 86.7112 94.1542 85.9526C92.7794 85.1939 91.1727 84.9703 89.643 85.3247C88.1681 85.7125 86.8943 86.6434 86.0768 87.9307C84.7434 87.219 83.1872 87.0474 81.7307 87.4517C80.2369 87.9179 78.9672 88.9183 78.1644 90.2616C77.3616 91.6049 77.0819 93.1969 77.3787 94.7334C77.4936 95.4976 77.7527 96.233 78.1424 96.9003C79.0648 98.5239 80.4612 99.8268 82.1446 100.635L89.3386 104.17C89.6851 104.342 90.0823 104.382 90.4558 104.282ZM80.9277 95.3114C80.7522 95.0156 80.6217 94.6954 80.5405 94.3612C80.5405 94.3612 80.5116 94.2536 80.4992 94.2076C80.3331 93.4483 80.4507 92.6545 80.8298 91.9759C81.2088 91.2974 81.8231 90.7811 82.5567 90.5244C83.0932 90.3818 83.6601 90.4028 84.1845 90.5847C84.709 90.7666 85.1671 91.1011 85.5 91.5453C85.6935 91.7857 85.9527 91.9645 86.246 92.0601C86.5393 92.1558 86.8542 92.1641 87.1521 92.084C87.4501 92.0039 87.7183 91.8389 87.9242 91.609C88.13 91.3792 88.2646 91.0945 88.3115 90.7895C88.3958 90.2227 88.6455 89.6934 89.0293 89.2679C89.4131 88.8424 89.9139 88.5396 90.469 88.3974C90.9489 88.3275 91.4383 88.3629 91.9031 88.5011C92.3679 88.6393 92.7971 88.8771 93.1608 89.1978C93.5245 89.5186 93.814 89.9147 94.0092 90.3586C94.2044 90.8026 94.3006 91.2837 94.2911 91.7685C94.3143 92.9796 93.9528 94.1668 93.2588 95.1596L89.4935 100.702L83.5531 97.7851C82.4549 97.2613 81.5432 96.4142 80.9401 95.3575L80.9277 95.3114Z" fill="white"/>
            <path d="M122.932 82.4878C122.419 81.012 121.382 79.7763 120.017 79.0161C118.652 78.2559 117.055 78.0244 115.531 78.3656C114.057 78.7562 112.785 79.6864 111.965 80.9716C110.637 80.2609 109.086 80.0879 107.634 80.4884C106.129 80.9457 104.847 81.9442 104.035 83.2912C103.222 84.6381 102.938 86.2381 103.236 87.7825C103.359 88.5455 103.623 89.2789 104.015 89.9453C104.96 91.5784 106.391 92.8754 108.109 93.6551L115.288 97.1946C115.635 97.3602 116.031 97.3944 116.401 97.2908C116.767 97.1924 117.086 96.9664 117.301 96.6536L121.86 89.9587C122.905 88.4149 123.454 86.5891 123.435 84.725C123.41 83.9542 123.24 83.195 122.932 82.4878ZM120.18 84.875C120.202 86.0822 119.846 87.2661 119.163 88.2619L115.381 93.7429L109.426 90.8301C108.331 90.3043 107.425 89.4556 106.828 88.3984C106.644 88.089 106.509 87.7529 106.428 87.4021C106.422 87.3491 106.408 87.2973 106.387 87.2484C106.221 86.4891 106.339 85.6953 106.718 85.0168C107.097 84.3383 107.711 83.822 108.445 83.5653C108.981 83.4204 109.549 83.4403 110.073 83.6224C110.598 83.8045 111.056 84.1403 111.388 84.5862C111.58 84.8316 111.841 85.015 112.137 85.1135C112.433 85.2121 112.751 85.2215 113.052 85.1405C113.354 85.0595 113.624 84.8917 113.831 84.6581C114.038 84.4244 114.171 84.1352 114.215 83.8263C114.299 83.2622 114.546 82.7352 114.927 82.3106C115.308 81.8861 115.805 81.5828 116.357 81.4383C116.837 81.3684 117.326 81.4037 117.791 81.542C118.256 81.6802 118.685 81.9179 119.049 82.2387C119.412 82.5595 119.702 82.9556 119.897 83.3995C120.092 83.8434 120.188 84.3245 120.179 84.8094L120.18 84.875Z" fill="white"/>
            </g>
            <defs>
            <clipPath id="clip0">
            <rect width="117" height="117" fill="white" transform="translate(45 44.8813)"/>
            </clipPath>
            <clipPath id="clip1">
            <rect width="70" height="70" fill="white" transform="translate(61.1138 78.1675) rotate(-15.0465)"/>
            </clipPath>
            </defs>
        </g>
    </symbol>

    <symbol id="heart" viewBox="0 0 112 113">
        <g>
	        <path d="M78.6406 10.9657C70.2188 10.9657 62.1469 14.1594 56 19.8251C49.8531 14.1594 41.7812 10.9657 33.3594 10.9657C14.9625 10.9657 0 25.9282 0 44.3251C0 53.9501 4.13437 63.5532 12.6438 73.7032C21.6781 84.6626 37.1 96.8032 56 108.463C74.8781 96.8688 90.4094 84.5751 99.3563 73.7251C107.866 63.5751 112 53.972 112 44.347C112 25.9282 97.0375 10.9657 78.6406 10.9657Z" fill="#54BE4A"/>
        </g>
    </symbol>

</svg>