<svg width="70" height="70" viewBox="0 0 70 70" fill="none" xmlns="http://www.w3.org/2000/svg">
<g clip-path="url(#clip0)">
<path d="M54.6987 50.675C49.2753 51.8679 42.531 55.7648 38.682 58.1506H70.0002L67.1372 49.3231C62.954 49.3547 58.7869 49.8002 54.6987 50.675Z" fill="#1A59EE"/>
<path d="M54.4446 42.611C58.3097 40.5432 62.3973 38.8887 66.6123 37.6641C67.9164 37.2981 68.9981 37.044 69.7934 36.8688L55.4467 11.786L36.0576 28.9161V56.4164C39.1275 53.2993 45.6649 47.3031 54.4446 42.611Z" fill="#1A59EE"/>
<path d="M43.1672 52.9017C46.6509 51.0409 50.6589 49.2273 54.2215 48.4482C58.7229 47.4777 63.3199 47.0005 67.9325 47.0005H67.9481C68.6321 47.0005 69.2205 47.0484 69.6977 47.0645L66.3097 40.0661C62.5719 41.2112 58.9459 42.7222 55.4784 44.5669C51.1199 46.9371 46.9845 49.7206 43.1672 52.9017Z" fill="#1A59EE"/>
<path d="M0 58.1505H33.8308V29.5207H11.4836L0 58.1505Z" fill="#1A59EE"/>
</g>
<defs>
<clipPath id="clip0">
<rect width="70" height="70" fill="white"/>
</clipPath>
</defs>
</svg>
