<svg width="70" height="53" viewBox="0 0 70 53" fill="none" xmlns="http://www.w3.org/2000/svg">
<g clip-path="url(#clip0)">
<path d="M62.0235 22.8053L36.0097 32.8824L9.98145 22.9444L8.49577 36.7419C8.46354 37.0208 8.49418 37.3036 8.58539 37.5688C8.6766 37.8339 8.82598 38.0746 9.02225 38.2725C9.22044 38.47 9.46089 38.6184 9.72485 38.7061C9.98881 38.7937 10.2691 38.8183 10.544 38.7778C11.977 38.5669 13.4232 38.4616 14.8712 38.4629C23.5256 38.4629 31.2569 42.1832 34.1273 47.7198C34.2807 48.0139 34.5102 48.26 34.791 48.4316C35.0718 48.6032 35.3934 48.6939 35.7212 48.6938H36.2765C36.6045 48.6947 36.9264 48.6044 37.2073 48.4327C37.4883 48.261 37.7176 48.0144 37.8704 47.7198C40.7552 42.1832 48.4793 38.4629 57.1337 38.4629C58.5817 38.461 60.028 38.5663 61.4609 38.7778C61.5475 38.7778 61.735 38.7778 61.735 38.7778C61.9748 38.7893 62.2143 38.7498 62.4381 38.6619C62.662 38.5739 62.8653 38.4395 63.0351 38.2671C63.2048 38.0947 63.3372 37.8883 63.4238 37.6609C63.5104 37.4336 63.5493 37.1904 63.538 36.9469C63.538 36.8078 62.0235 22.8053 62.0235 22.8053Z" fill="#FFAF3E"/>
<path d="M68.8316 12.4206L36.6443 0.124516C36.2361 -0.0365412 35.7833 -0.0365412 35.375 0.124516L3.10838 12.4499C2.76511 12.581 2.46937 12.8153 2.26062 13.1215C2.05187 13.4277 1.94003 13.7912 1.94003 14.1636V36.4343H5.98598V16.9172L35.375 28.1515C35.7846 28.3051 36.2348 28.3051 36.6443 28.1515L68.8316 15.8627C69.1749 15.7316 69.4706 15.4973 69.6794 15.1911C69.8882 14.8849 70 14.5214 70 14.149C70 13.7766 69.8882 13.413 69.6794 13.1068C69.4706 12.8006 69.1749 12.5664 68.8316 12.4353V12.4206Z" fill="#FFAF3E"/>
<path d="M-0.000164414 51.0153C-0.0200653 51.2681 0.0117667 51.5224 0.0933293 51.7621C0.174892 52.0018 0.30442 52.2218 0.473768 52.4082C0.643115 52.5946 0.848617 52.7434 1.07735 52.8452C1.30608 52.9471 1.55309 52.9998 1.80284 53H6.13006C6.38322 53.0004 6.6336 52.9465 6.86479 52.8417C7.09597 52.7369 7.30273 52.5837 7.4715 52.3921C7.63627 52.2064 7.76214 51.9885 7.84148 51.7518C7.92083 51.5152 7.95199 51.2646 7.93307 51.0153L6.73588 39.62H1.18261L-0.000164414 51.0153Z" fill="#FFAF3E"/>
</g>
<defs>
<clipPath id="clip0">
<rect width="70" height="53" fill="white"/>
</clipPath>
</defs>
</svg>
