<svg width="70" height="70" viewBox="0 0 70 70" fill="none" xmlns="http://www.w3.org/2000/svg">
<g clip-path="url(#clip0)">
<path d="M35 12.4414H32.9492V18.5938C32.9492 21.2639 31.2296 23.5189 28.8477 24.3683V37.0508H43.2031C44.3327 37.0508 45.2539 36.1315 45.2539 35V24.7461H39.1016C37.968 24.7461 37.0508 23.8288 37.0508 22.6953V14.4922C37.0508 13.3607 36.1296 12.4414 35 12.4414Z" fill="#54BE4A"/>
<path d="M35 53.457C49.7 53.457 61.6601 41.4969 61.6601 26.7969C61.6601 12.0969 49.7 0 35 0C22.4204 0 11.8736 8.90531 9.08508 20.6445H26.7969C27.9264 20.6445 28.8476 19.7252 28.8476 18.5938V10.3906C28.8476 9.25709 29.7649 8.33984 30.8984 8.33984H35C38.3925 8.33984 41.1523 11.0996 41.1523 14.4922V20.6445H47.3047C48.4382 20.6445 49.3555 21.5618 49.3555 22.6953V35C49.3555 38.3925 46.5957 41.1523 43.2031 41.1523C42.6739 41.1523 10.7351 41.1523 12.5709 41.1523C17.316 48.5401 25.5868 53.457 35 53.457Z" fill="#54BE4A"/>
<path d="M8.44375 24.7461C8.39166 25.4253 8.33984 26.1047 8.33984 26.7969C8.33984 30.4294 9.07539 33.892 10.3969 37.0508H24.7461V24.7461H8.44375Z" fill="#54BE4A"/>
<path d="M6.88993 61.5905L16.1184 59.1192L18.5898 68.4805C18.8061 69.2815 19.483 69.8743 20.3041 69.9825C21.1448 70.0921 21.941 69.6785 22.3468 68.9751L29.1859 56.9904C22.1456 55.637 15.957 51.8827 11.5024 46.6075L4.58677 58.5845C4.17019 59.3035 4.23034 60.2007 4.73497 60.8576C5.23564 61.5164 6.10079 61.8068 6.88993 61.5905Z" fill="#54BE4A"/>
<path d="M63.11 61.5905C63.8951 61.8068 64.7602 61.5164 65.265 60.8576C65.7696 60.2007 65.8298 59.3035 65.4132 58.5845L58.4976 46.6075C54.043 51.8827 47.8544 55.637 40.8141 56.9904L47.6532 68.9751C48.059 69.6809 48.8557 70.0918 49.6959 69.9825C50.517 69.8743 51.1939 69.2815 51.4102 68.4805L53.8815 59.1192L63.11 61.5905Z" fill="#54BE4A"/>
</g>
<defs>
<clipPath id="clip0">
<rect width="70" height="70" fill="white"/>
</clipPath>
</defs>
</svg>
