<svg width="71" height="71" viewBox="0 0 71 71" fill="none" xmlns="http://www.w3.org/2000/svg">
<g clip-path="url(#clip0)">
<path d="M42.0428 55.831C37.6301 55.831 33.3437 55.0578 29.3026 53.5328C25.3742 52.0504 21.8398 49.9223 18.7974 47.2081C15.7208 44.4633 13.3 41.2555 11.6021 37.6739C10.9325 36.2614 10.3876 34.8153 9.96829 33.3415C3.97156 36.7867 0 42.7953 0 49.632C0 55.383 2.81129 60.5474 7.27348 64.0938C6.16785 65.9111 4.65244 67.3167 3.36626 68.2915C2.38848 69.0327 2.77288 70.5702 3.98321 70.7715C4.90344 70.9245 5.82519 70.9999 6.73696 70.9999C9.99907 70.9999 13.1263 70.0337 15.5371 68.2006C17.4915 68.7163 19.5602 68.9944 21.7021 68.9944C31.259 68.9944 39.373 63.4829 42.2691 55.8281C42.1937 55.8285 42.1183 55.831 42.0428 55.831Z" fill="#8236F5"/>
<path d="M67.3292 51.3298C65.4743 50.0361 63.0137 47.9568 61.295 45.1317C67.2489 40.4 71 33.5091 71 25.8354C71 11.5669 58.0354 0 42.0428 0C26.0502 0 13.0856 11.5669 13.0856 25.8354C13.0856 40.1039 26.0502 51.6708 42.0428 51.6708C44.9007 51.6708 47.6611 51.2996 50.2688 50.6115C53.4857 53.0575 57.6581 54.3468 62.0109 54.3468C63.6031 54.3468 65.219 54.1744 66.8217 53.823C68.0072 53.5631 68.3246 52.0241 67.3292 51.3298ZM45.7864 16.5868C45.7864 15.4381 46.7177 14.5067 47.8665 14.5067C49.0152 14.5067 49.9466 15.4381 49.9466 16.5868V21.8147C49.9466 22.9635 49.0152 23.8948 47.8665 23.8948C46.7177 23.8948 45.7864 22.9635 45.7864 21.8147V16.5868ZM33.2392 16.5215C33.2392 15.3727 34.1705 14.4414 35.3193 14.4414C36.4681 14.4414 37.3994 15.3727 37.3994 16.5215V21.7494C37.3994 22.8982 36.4681 23.8295 35.3193 23.8295C34.1705 23.8295 33.2392 22.8982 33.2392 21.7494V16.5215ZM54.7662 36.2459C51.3338 39.0693 46.7948 40.6242 41.985 40.6242C37.1753 40.6242 32.6361 39.0693 29.2039 36.2459C25.6535 33.3255 23.6983 29.4075 23.6983 25.2129C23.6983 24.0641 24.6296 23.1328 25.7784 23.1328C26.9272 23.1328 27.8585 24.0641 27.8585 25.2129C27.8585 31.4168 34.1955 36.464 41.985 36.464C49.7745 36.464 56.1115 31.4169 56.1115 25.2129C56.1115 24.0641 57.0428 23.1328 58.1916 23.1328C59.3403 23.1328 60.2716 24.0641 60.2716 25.2129C60.2716 29.4073 58.3164 33.3255 54.7662 36.2459Z" fill="#8236F5"/>
</g>
<defs>
<clipPath id="clip0">
<rect width="71" height="71" fill="white"/>
</clipPath>
</defs>
</svg>
