<svg width="70" height="70" viewBox="0 0 70 70" fill="none" xmlns="http://www.w3.org/2000/svg">
<g clip-path="url(#clip0)">
<path d="M63.5566 4.375H32.8029C29.2439 4.375 26.3595 7.25998 26.3595 10.8184V25.9669C27.9852 26.775 29.7417 27.6487 31.3812 28.4637L33.8897 23.4446C35.4086 20.4095 39.1112 19.1764 42.1452 20.6926C45.1856 22.2141 46.4176 25.9066 44.8956 28.9475L40.4239 37.893C40.5425 39.077 40.4373 40.2706 40.1035 41.4258H43.0557L35.2692 62.8372C34.8072 64.1072 35.7002 65.5892 37.1971 65.5892C38.034 65.5892 38.8212 65.0728 39.1235 64.2386L47.4195 41.4258H48.8567L57.2371 64.2455C57.5421 65.0755 58.3271 65.5892 59.1635 65.5892C60.5621 65.5892 61.5875 64.1921 61.0871 62.8319L53.2258 41.4258H63.5566C67.115 41.4258 70 38.5408 70 34.9824V10.8184C70 7.25998 67.115 4.375 63.5566 4.375V4.375ZM59.1624 32.64H49.9611C48.8289 32.64 47.9103 31.7214 47.9103 30.5892C47.9103 29.4559 48.8289 28.5384 49.9611 28.5384H59.1624C60.2957 28.5384 61.2132 29.4559 61.2132 30.5892C61.2132 31.7214 60.2957 32.64 59.1624 32.64ZM59.1624 24.9512H49.9611C48.8289 24.9512 47.9103 24.0337 47.9103 22.9004C47.9103 21.7682 48.8289 20.8496 49.9611 20.8496H59.1624C60.2957 20.8496 61.2132 21.7682 61.2132 22.9004C61.2132 24.0337 60.2957 24.9512 59.1624 24.9512ZM59.1624 17.2634H37.1971C36.0639 17.2634 35.1463 16.3448 35.1463 15.2126C35.1463 14.0804 36.0639 13.1618 37.1971 13.1618H59.1624C60.2957 13.1618 61.2132 14.0804 61.2132 15.2126C61.2132 16.3448 60.2957 17.2634 59.1624 17.2634Z" fill="#8236F5"/>
<path d="M36.0831 40.5462C36.4537 39.4604 36.451 38.3261 36.1381 37.2911L41.2276 27.113C41.7339 26.0999 41.3238 24.8679 40.3107 24.3616C39.2981 23.8548 38.066 24.2654 37.5592 25.2785L33.2184 33.9591C30.6239 32.6672 26.6821 30.7072 23.5065 29.128C20.5521 27.6588 18.4437 26.3413 14.8463 26.3413H13.0342C15.8353 26.3413 18.3353 25.0521 19.9716 23.0344C21.2202 21.499 21.9669 19.5422 21.9669 17.4097C21.9669 12.4756 17.9678 8.47656 13.0331 8.47656C8.10059 8.47656 4.10156 12.4756 4.10156 17.4097C4.10156 19.7794 5.02441 21.9327 6.52992 23.5306C8.15773 25.2615 10.4697 26.3413 13.0326 26.3419C9.59648 26.3419 6.23726 27.7341 3.82065 30.1572C1.35704 32.6144 0 35.8881 0 39.3755V45.9653C0 48.8022 1.84196 51.2161 4.39316 52.0749V63.5379C4.39316 64.6706 5.3112 65.5887 6.44394 65.5887H19.6234C20.7561 65.5887 21.6742 64.6706 21.6742 63.5379V40.496C23.6187 41.468 26.1731 42.7449 28.2399 43.7788C29.6888 44.503 31.3818 44.5682 32.8915 43.954C34.397 43.3345 35.5576 42.1014 36.0751 40.5702C36.0777 40.5622 36.0804 40.5542 36.0831 40.5462Z" fill="#8236F5"/>
</g>
<defs>
<clipPath id="clip0">
<rect width="70" height="70" fill="white"/>
</clipPath>
</defs>
</svg>
