<svg width="45" height="44" viewBox="0 0 45 44" fill="none" xmlns="http://www.w3.org/2000/svg">
<path d="M3.20579 18.2175C3.54769 16.274 6.13977 15.1258 7.02435 13.4739C7.93683 11.764 7.45844 8.99665 8.84304 7.67798C10.2276 6.35931 13.0147 6.91617 14.75 6.07603C16.4853 5.23589 17.7238 2.71807 19.6585 2.45245C21.5285 2.19296 23.4378 4.26273 25.3995 4.60783C27.3611 4.95293 29.8622 3.65903 31.5314 4.54115C33.2627 5.45172 33.576 8.25303 34.9085 9.62234C36.2409 10.9917 39.0645 11.4218 39.9176 13.1447C40.7706 14.8675 39.3714 17.294 39.649 19.2133C39.9133 21.0672 41.9579 23.0312 41.616 24.9747C41.2741 26.9181 38.682 28.0664 37.8008 29.7188C36.8849 31.4282 37.3668 34.1961 35.9822 35.5148C34.5976 36.8335 31.8111 36.2732 30.0717 37.1161C28.3324 37.9591 27.1014 40.4747 25.1633 40.7397C23.2902 41.0162 21.3839 38.9294 19.4223 38.5843C17.4606 38.2392 14.9596 39.5331 13.2904 38.651C11.5625 37.741 11.2463 34.9357 9.91326 33.5698C8.5802 32.2039 5.75772 31.7879 4.90421 30.0475C4.05071 28.3071 5.45032 25.8982 5.1762 23.9795C4.90847 22.1249 2.8639 20.1609 3.20579 18.2175Z" fill="#FFAF3E"/>
<path d="M12.327 24.1595L12.781 19.9703L15.7248 18.8988L14.6661 25.2868L19.6961 29.5584L16.7228 30.6406L13.6069 27.676L13.1256 31.9499L10.1597 33.0294L11.2597 26.5266L6.34994 22.311L9.28648 21.2422L12.327 24.1595ZM22.9194 16.2802L25.4962 15.3423L29.3867 26.0314L26.8098 26.9692L24.3569 20.2299L22.9703 28.3667L20.3935 29.3046L16.503 18.6156L19.0798 17.6777L21.5354 24.4244L22.9194 16.2802ZM35.9696 13.7834L32.7614 14.9511L35.9278 23.6506L33.351 24.5885L30.1846 15.889L27.0352 17.0353L26.3111 15.0458L35.2455 11.7939L35.9696 13.7834Z" fill="white"/>
</svg>
