<svg width="51" height="51" viewBox="0 0 51 51" fill="none" xmlns="http://www.w3.org/2000/svg">
<g clip-path="url(#clip0)">
<path d="M20.4024 13.435C13.6835 15.8805 10.2068 23.3361 12.6523 30.0549C15.0978 36.7738 22.5535 40.2505 29.2723 37.805C35.9912 35.3595 39.4679 27.9038 37.0224 21.185C34.577 14.4662 27.1212 10.9895 20.4024 13.435Z" fill="#1A59EE"/>
<path d="M39.1537 20.6644L40.8923 14.8524C41.0111 14.4552 40.93 14.025 40.6747 13.6983C40.4194 13.3715 40.0217 13.1888 39.6074 13.208L33.5475 13.4888L31.5378 7.76491C31.4004 7.37365 31.0819 7.07329 30.6834 6.95898C30.2848 6.84469 29.8555 6.93061 29.5318 7.18965L24.7943 10.9788L19.8041 7.5294C19.4629 7.29363 19.0288 7.23783 18.6392 7.37964C18.2496 7.52145 17.9529 7.84326 17.8431 8.24312L16.2376 14.0933L10.1727 14.2358C9.75819 14.2456 9.37408 14.4557 9.14226 14.7994C8.91044 15.1431 8.85952 15.578 9.00582 15.966L11.1456 21.6425L6.32288 25.3226C5.99326 25.5742 5.80603 25.9699 5.82053 26.3842C5.83496 26.7986 6.04936 27.1802 6.39578 27.4082L11.4635 30.7429L9.72494 36.555C9.60605 36.9522 9.68722 37.3824 9.94246 37.7091C10.1977 38.0359 10.5955 38.2186 11.0097 38.1995L17.0696 37.9185L19.0792 43.6425C19.2166 44.0337 19.5351 44.3341 19.9336 44.4484C20.3322 44.5626 20.7613 44.4767 21.0852 44.2177L25.8228 40.4285L30.8131 43.878C31.1542 44.1138 31.5884 44.1696 31.978 44.0277C32.3676 43.8859 32.6643 43.5641 32.7741 43.1643L34.3796 37.3141L40.4444 37.1716C40.8588 37.1618 41.2429 36.9518 41.4748 36.608C41.7067 36.2643 41.7576 35.8294 41.6113 35.4415L39.4716 29.7648L44.2943 26.0848C44.624 25.8333 44.8112 25.4376 44.7968 25.0232C44.7823 24.6088 44.5679 24.2272 44.2215 23.9992L39.1537 20.6644ZM29.566 37.4009C23.1161 39.7485 15.9588 36.411 13.6112 29.9611C11.2636 23.5111 14.6011 16.3539 21.0511 14.0063C27.501 11.6587 34.6583 14.9961 37.0059 21.4461C39.3535 27.896 36.016 35.0533 29.566 37.4009Z" fill="#1A59EE"/>
<path d="M22.0136 32.9741L19.9319 33.7318L14.8871 29.4479L16.854 34.852L14.7604 35.614L11.5994 26.9292L13.693 26.1672L18.7319 30.4533L16.7649 25.0491L18.8526 24.2893L22.0136 32.9741ZM27.3846 26.8514L24.092 28.0498L24.8453 30.1196L28.7344 28.7041L29.3206 30.3146L23.3378 32.4921L20.1768 23.8073L26.1715 21.6254L26.7598 23.2419L22.8588 24.6617L23.5253 26.4929L26.8179 25.2945L27.3846 26.8514ZM35.723 24.3163L34.737 18.5078L36.8128 17.7523L38.1306 27.108L35.9594 27.8982L32.9943 23.3707L33.657 28.7362L31.4918 29.5243L26.4817 21.5125L28.5634 20.7548L31.5417 25.8382L30.7525 19.9581L32.53 19.3111L35.723 24.3163Z" fill="white"/>
</g>
<defs>
<clipPath id="clip0">
<rect width="39" height="39" fill="white" transform="translate(0.476318 13.4752) rotate(-20)"/>
</clipPath>
</defs>
</svg>
