<svg width="51" height="51" viewBox="0 0 51 51" fill="none" xmlns="http://www.w3.org/2000/svg">
<g clip-path="url(#clip0)">
<path d="M21.9261 16.4104C16.8018 18.2755 14.1502 23.9617 16.0153 29.086C17.8804 34.2104 23.5667 36.8619 28.6911 34.9968C33.8154 33.1317 36.467 27.4454 34.6018 22.3211C32.7368 17.1968 27.0505 14.5453 21.9261 16.4104Z" fill="#1A59EE"/>
<path d="M39.1537 20.6644L40.8923 14.8524C41.0111 14.4552 40.93 14.025 40.6747 13.6983C40.4194 13.3715 40.0217 13.1888 39.6074 13.208L33.5475 13.4888L31.5378 7.76491C31.4004 7.37365 31.0819 7.07329 30.6834 6.95898C30.2848 6.84469 29.8555 6.93061 29.5318 7.18965L24.7943 10.9788L19.8041 7.5294C19.4629 7.29363 19.0288 7.23783 18.6392 7.37964C18.2496 7.52145 17.9529 7.84326 17.8431 8.24312L16.2376 14.0933L10.1727 14.2358C9.75819 14.2456 9.37408 14.4557 9.14226 14.7994C8.91044 15.1431 8.85952 15.578 9.00582 15.966L11.1456 21.6425L6.32288 25.3226C5.99326 25.5742 5.80603 25.9699 5.82053 26.3842C5.83496 26.7986 6.04936 27.1802 6.39578 27.4082L11.4635 30.7429L9.72494 36.555C9.60605 36.9522 9.68722 37.3824 9.94246 37.7091C10.1977 38.0359 10.5955 38.2186 11.0097 38.1995L17.0696 37.9185L19.0792 43.6425C19.2166 44.0337 19.5351 44.3341 19.9336 44.4484C20.3322 44.5626 20.7613 44.4767 21.0852 44.2177L25.8228 40.4285L30.8131 43.878C31.1542 44.1138 31.5884 44.1696 31.978 44.0277C32.3676 43.8859 32.6643 43.5641 32.7741 43.1643L34.3796 37.3141L40.4444 37.1716C40.8588 37.1618 41.2429 36.9518 41.4748 36.608C41.7067 36.2643 41.7576 35.8294 41.6113 35.4415L39.4716 29.7648L44.2943 26.0848C44.624 25.8333 44.8112 25.4376 44.7968 25.0232C44.7823 24.6088 44.5679 24.2272 44.2215 23.9992L39.1537 20.6644ZM29.566 37.4009C23.1161 39.7485 15.9588 36.411 13.6112 29.9611C11.2636 23.5111 14.6011 16.3539 21.0511 14.0063C27.501 11.6587 34.6583 14.9961 37.0059 21.4461C39.3535 27.896 36.016 35.0533 29.566 37.4009Z" fill="#1A59EE"/>
<path d="M19.759 24.3177L20.9299 23.8916L22.6058 28.4961L21.698 28.8265L19.2306 27.1024L20.0733 29.4178L18.8959 29.8464L17.22 25.2419L18.1343 24.9091L20.6018 26.6331L19.759 24.3177ZM24.1098 26.6972L25.8924 26.0484L26.2947 27.1534L23.3346 28.2308L21.6587 23.6263L24.5859 22.5609L24.9857 23.6594L23.236 24.2963L23.4682 24.9343L25.0535 24.3573L25.4485 25.4427L23.8633 26.0197L24.1098 26.6972ZM27.8152 26.6L24.85 22.4648L26.1195 22.0027L27.8858 24.645L27.6522 21.4449L28.5797 21.1073L30.4577 23.7089L30.1189 20.5471L31.3818 20.0874L31.775 25.1587L30.5318 25.6112L28.8494 23.2811L29.0584 26.1475L27.8152 26.6Z" fill="white"/>
</g>
<defs>
<clipPath id="clip0">
<rect width="39" height="39" fill="white" transform="translate(0.476318 13.4752) rotate(-20)"/>
</clipPath>
</defs>
</svg>
