<svg width="183" height="175" viewBox="0 0 183 175" fill="none" xmlns="http://www.w3.org/2000/svg">
<path d="M16.3714 96.3972C15.1786 88.7017 23.528 81.0976 24.7644 73.7971C26.032 66.2438 20.6769 56.5207 24.234 49.8249C27.791 43.129 39.0622 41.6436 44.5604 36.2863C50.0585 30.929 51.5268 19.9417 58.5161 16.4749C65.2681 13.1137 75.1507 18.4014 83.0239 17.181C90.897 15.9607 98.7151 7.92921 106.168 9.08852C113.892 10.2746 118.666 20.3358 125.466 23.7453C132.267 27.1549 143.514 25.1498 148.951 30.4928C154.389 35.8358 152.195 46.6877 155.703 53.5007C159.078 60.0865 169.338 64.806 170.53 72.5015C171.723 80.197 163.374 87.801 162.151 95.0994C160.87 102.655 166.239 112.376 162.682 119.072C159.125 125.768 147.851 127.239 142.341 132.612C136.832 137.985 135.389 148.955 128.386 152.424C121.644 155.852 111.751 150.497 103.878 151.718C96.0048 152.938 88.1868 160.969 80.7341 159.81C73.0232 158.622 68.2341 148.549 61.4355 145.153C54.6368 141.757 43.412 143.814 37.9505 138.406C32.4891 132.998 34.7073 122.211 31.2125 115.396C27.824 108.812 17.5643 104.093 16.3714 96.3972Z" fill="#54BE4A"/>
<path d="M12.1963 102.104C11.0035 94.4086 19.3529 86.8046 20.5892 79.504C21.8568 71.9507 16.5018 62.2276 20.0588 55.5318C23.6159 48.8359 34.887 47.3505 40.3852 41.9932C45.8834 36.6359 47.3517 25.6486 54.341 22.1818C61.093 18.8206 70.9756 24.1083 78.8488 22.888C86.7219 21.6676 94.54 13.6361 101.993 14.7954C109.717 15.9815 114.49 26.0427 121.291 29.4522C128.092 32.8618 139.339 30.8567 144.776 36.1997C150.213 41.5427 148.019 52.3946 151.528 59.2076C154.903 65.7934 165.162 70.5129 166.355 78.2084C167.548 85.9039 159.199 93.508 157.976 100.806C156.695 108.362 162.064 118.083 158.507 124.779C154.95 131.474 143.676 132.946 138.166 138.319C132.656 143.692 131.214 154.662 124.211 158.131C117.469 161.559 107.576 156.204 99.7029 157.425C91.8297 158.645 84.0116 166.676 76.559 165.517C68.8481 164.329 64.059 154.256 57.2604 150.86C50.4617 147.464 39.2368 149.521 33.7754 144.113C28.314 138.705 30.5322 127.918 27.0373 121.103C23.6489 114.519 13.3892 109.8 12.1963 102.104Z" fill="#1A59EE"/>
<path d="M50.7565 113.161C47.1002 113.727 43.9497 113.423 41.3051 112.248C38.6605 111.072 36.6564 109.241 35.2927 106.754L42.1707 101.184C43.9302 104.049 46.4405 105.228 49.7016 104.723C52.4027 104.304 53.6332 103.32 53.3932 101.772C53.2349 100.751 52.3332 100.048 50.688 99.6617C49.9884 99.5003 48.4701 99.2803 46.1332 99.0017C42.828 98.5695 40.1254 97.6729 38.0254 96.3118C35.9204 94.9178 34.6381 92.7385 34.1786 89.7739C33.6833 86.5788 34.4189 83.8168 36.3854 81.4881C38.3849 79.1543 41.0975 77.7219 44.5232 77.1909C47.4219 76.7415 50.0959 77.0186 52.5452 78.0219C54.9945 79.0252 57.0111 80.7196 58.5952 83.1051L51.8577 88.6021C50.3724 86.2012 48.3781 85.1948 45.8746 85.5829C44.8206 85.7463 44.0467 86.0855 43.5531 86.6005C43.0925 87.1104 42.9132 87.6948 43.0153 88.3536C43.1327 89.1112 43.6276 89.6923 44.4998 90.0968C45.405 90.4961 47.0806 90.8605 49.5266 91.1897C51.2831 91.4234 52.7051 91.6752 53.7926 91.9451C54.8802 92.2151 56.0971 92.6673 57.4436 93.3019C58.7849 93.9035 59.8516 94.8007 60.6436 95.9935C61.4306 97.1533 61.9568 98.5896 62.2223 100.303C62.7482 103.695 61.9569 106.533 59.8484 108.817C57.74 111.1 54.7093 112.548 50.7565 113.161ZM87.857 106.651L85.6011 101.89L74.0886 103.675L73.3799 108.895L63.7943 110.381L69.8468 74.0245L80.6182 72.3549L97.3931 105.173L87.857 106.651ZM75.182 95.7132L82.1488 94.6333L76.8179 83.4175L75.182 95.7132ZM107.427 94.8639L119.335 93.0181L120.66 101.566L99.908 104.783L94.5468 70.1958L103.391 68.8249L107.427 94.8639ZM131.447 91.3937L144.837 89.3182L146.124 97.619L123.889 101.066L118.528 66.4786L140.515 63.0704L141.794 71.3218L128.651 73.3591L129.394 78.1519L141.302 76.3061L142.566 84.4587L130.658 86.3045L131.447 91.3937Z" fill="white"/>
</svg>
